<svg xmlns="http://www.w3.org/2000/svg" viewBox="0 0 57.28 64"><defs><style>.cls-1{fill:#fff;}</style></defs><title>Asset 1</title><g id="Layer_2" data-name="Layer 2"><g id="Слой_2" data-name="Слой 2"><g id="Electronics"><path class="cls-1" d="M42.36,0A14.91,14.91,0,0,0,29,8.28a19.83,19.83,0,0,0-8.9-2.08,20.14,20.14,0,0,0-8.84,38.22V64H29V52.44h0v-8A20,20,0,0,0,40,29.64a13.34,13.34,0,0,0,2.38.2A14.92,14.92,0,1,0,42.36,0ZM43,25.8l7.76-12.88h-9.1L46.4,4.78A10.9,10.9,0,0,1,43,25.8Zm-6.9-1.94v0a10.92,10.92,0,0,1-4.64-8.92v-.08A10.92,10.92,0,0,1,42.22,4l-7.56,12.9h9l-5,8.28A10.66,10.66,0,0,1,36.08,23.86ZM25,60H15.28V52.44H25Zm1.26-18.74L25,41.78v6.66H22.12V36.2a8.64,8.64,0,0,0,6.62-8.36h-4a4.61,4.61,0,1,1-9.22,0h-4a8.62,8.62,0,0,0,6.6,8.36V48.44H15.28V41.78L14,41.26A16.13,16.13,0,1,1,27.72,12.1a14.5,14.5,0,0,0-.28,2.82,14.86,14.86,0,0,0,8.68,13.52A16,16,0,0,1,26.22,41.26Z"/></g></g></g></svg>